<?xml version="1.0" encoding="utf-8"?>
<!-- Generator: Adobe Illustrator 27.7.0, SVG Export Plug-In . SVG Version: 6.00 Build 0)  -->
<svg version="1.1" xmlns="http://www.w3.org/2000/svg" xmlns:xlink="http://www.w3.org/1999/xlink" x="0px" y="0px"
	 viewBox="0 0 1598 327.2" style="enable-background:new 0 0 1598 327.2;" xml:space="preserve">
<style type="text/css">
	.st0{display:none;}
	.st1{display:inline;}
	.st2{fill:#FFFFFF;}
</style>
<g id="Layer_1" class="st0">
	<g class="st1">
		<path class="st2" d="M196.3,16.7v51.3c-1.4-5.9-8.7-33.1-34.6-48.1C144,9.8,126.3,10.3,119,10.6c-1.3,0-18.1,0.9-34.5,8.8
			c-41,19.7-61.2,74.8-62,118.4c-0.6,34.8,11.1,59.5,14.3,65.7c5.6,11.2,15.7,30.8,38,45c7.9,5,22.7,14.3,43.8,14.5
			c22.8,0.2,38.9-10.3,44.8-14.3c21.7-14.6,30.2-35.2,33-43c0.1,15.9,0.3,31.9,0.4,47.8h60.9c-0.1-78.9-0.2-157.8-0.3-236.7
			L196.3,16.7z M195,152.8c-2.1,19.2-8.6,39-23.6,51.1c-19.5,15.7-51.3,12.8-67.6-6.2c-8.3-9.7-12.5-22.3-14.8-34.9
			c-3-16.2-3.1-33-0.4-49.2c2.6-15.3,8-30.7,19.1-41.4c9.5-9.1,22.7-14.2,35.8-13.7s25.9,6.6,34.7,16.4
			c9.4,10.6,13.8,24.8,15.9,38.8C196.1,126.7,196.4,139.8,195,152.8L195,152.8z"/>
		<path class="st2" d="M878.5,30.9c-6.6-5.3-23.6-18.5-48.9-20.2c-6.2-0.4-35.2-1.7-59.3,19.8c-14.9,13.3-20.9,28.9-23.1,36.4V16.7
			h-61v315.5h61V212.3c2.6,6.5,12.3,28.7,36.8,41.6c3.5,1.8,19.8,10,42.1,8.6c25.6-1.7,43-15.1,50.3-20.9
			c43-34.1,43.9-93.4,44-104.3C920.6,125.2,921.5,65.3,878.5,30.9L878.5,30.9z M854.2,153.9c-1.8,16.7-6.4,34-18.1,46.1
			c-17,17.6-48,19-66.5,3c-16.7-14.4-21.6-38.2-22.5-60.3c-0.7-16.6,0.4-33.6,6.7-49s18.6-28.9,34.6-33.6
			c12.1-3.5,25.5-1.7,36.5,4.5c11,6.2,19.5,16.4,24.1,28.1c3.2,8,4.6,16.6,5.4,25.2C855.6,129.8,855.5,141.9,854.2,153.9
			L854.2,153.9z"/>
		<path class="st2" d="M1142.1,43c-21.1-21.6-48.3-32.6-82.2-32.6s-62.2,11.5-83.8,34.1c-5.6,5.8-10.5,12.1-14.6,18.8
			c-17.3,27.9-18.3,62.1-18.3,71c0,14.8-0.1,53.7,26.8,86.3c2.5,3,10.9,12.8,24.7,22.1c7.5,5,31.9,20.9,66.8,20.7
			c46-0.3,75.6-28.4,81.1-33.8c16-15.8,23.8-32.8,27.6-43c-17.4-3.9-34.8-7.7-52.2-11.6c-1.3,4.6-6.4,20.2-22.2,31
			c-12.9,8.8-25.9,9.6-31.4,9.6c-19.3,0-32.5-10.1-36.2-13.1c-25.4-20.2-23.8-53.9-23.5-57.6c56.1,0.1,112.1,0.3,168.2,0.4
			c0.2-3.7,0.4-9.2,0.2-15.9C1172.3,113.3,1171.2,72.8,1142.1,43L1142.1,43z M1006.3,108c0.2-3.9,1.6-25.8,20-41
			c3.5-2.9,16.5-13.4,35.5-12.6c17.8,0.7,29.3,10.8,32.6,13.7c16.9,15.2,18,35.8,18.2,39.9L1006.3,108L1006.3,108z"/>
		<path class="st2" d="M1325.9,16.3c-16.1,4.9-26.2,13.8-31.2,18.3c-10.3,9.2-15.8,18.4-20.4,26c-5.7,9.3-9.3,17.8-11.6,24
			c-0.1-22.6-0.2-45.3-0.3-67.9c-5.2,0-10.3-0.1-15.5-0.1h-44.9c0,78.9,0,157.8,0,236.7h60.8c-0.2-16.3-0.2-29.9-0.2-40.2
			c0-18.8,0.1-9,0.5-51.6c0.2-19.7,0.5-21.7,1-26.5c0.9-8.3,4-24.7,16.9-38.4c12.6-13.4,28.2-17.5,40.5-20.8
			c11.7-3.1,21.8-3.7,28.7-3.7c0.3-19.8,0.6-39.5,0.9-59.3C1345,12.8,1336.1,13.2,1325.9,16.3L1325.9,16.3z"/>
		<path class="st2" d="M1533.2,16.7v51.3c-1.4-5.9-8.7-33.1-34.6-48.1c-17.7-10.2-35.4-9.7-42.7-9.4c-1.3,0-18.1,0.9-34.5,8.8
			c-41,19.7-61.2,74.8-62,118.4c-0.6,34.8,11.1,59.5,14.3,65.7c5.6,11.2,15.7,30.8,38,45c7.9,5,22.7,14.3,43.8,14.5
			c22.8,0.2,38.9-10.3,44.8-14.3c21.7-14.6,30.2-35.2,33-43c0.1,15.9,0.3,31.9,0.4,47.8h60.9c-0.1-78.9-0.2-157.8-0.3-236.7
			L1533.2,16.7z M1532.1,151.6c-2,20.1-9,41.1-25.1,53.3c-10.2,7.7-23.4,11.1-36,9.4c-12.6-1.7-24.4-8.6-32.1-18.8
			c-6.5-8.6-10-19-12.2-29.6c-3.8-18.1-3.9-37-0.5-55.2c2.6-13.7,7.5-27.3,17.1-37.4c9.2-9.7,22.6-15.3,36-15.1
			c13.4,0.2,26.6,6.2,35.5,16.2c9.3,10.3,13.7,24.1,16,37.8C1533,125.3,1533.4,138.6,1532.1,151.6L1532.1,151.6z"/>
		<path class="st2" d="M569.2,11.9c-35.5,0-59.4,19.8-71.5,59.4c-7.6-39.6-30.1-59.4-67.9-59.4c-35.1,0-57.6,19.3-67.9,57.4V16.7
			h-57.1v236.5h57.1v-113c0-48.8,15.3-72.9,45.9-72.9c24.3,0,36.4,15.9,36.4,47.3v138.5h57.1V145.6c0-52.1,15.3-78.2,45.9-78.2
			c24.7,0,36.9,15.9,36.9,47.8v138.1h57.1V109.9C641.2,44.7,617.4,11.9,569.2,11.9L569.2,11.9z"/>
	</g>
</g>
<g id="Layer_2" class="st0">
	<g class="st1">
		<path class="st2" d="M77.5,137.4c0-73.4,43.1-128.4,103.1-128.4c35.7,0,63.9,23.3,75.3,59.5V16H306v238.4H256v-50.1
			c-13.4,34.2-42.6,58.5-78.3,58.5C118.7,262.8,77.5,209.3,77.5,137.4z M191.5,222.2c39.2,0,63.9-33.2,63.9-85.7
			c0-53.5-23.8-86.2-62-86.2c-39.2,0-62.9,33.7-62.9,87.2C130.6,189.5,153.9,222.2,191.5,222.2z"/>
		<path class="st2" d="M341.2,16h50.1v41.6C403.7,27.4,426,9.1,458.2,9.1c33.7,0,56,20.3,65.4,50.1C538,27.9,561.8,9.1,596,9.1
			c48.1,0,75.3,35.7,75.3,86.2v159.1h-51.1V100.3c0-30.7-12.4-51.1-40.6-51.1c-30.7,0-48.1,24.8-48.1,66.9v138.3H481V100.3
			c0-30.2-11.9-51.1-40.1-51.1c-31.2,0-48.6,24.8-48.6,66.9v138.3h-51.1V16z"/>
		<path class="st2" d="M703.6,16h50.1v53c11.9-35.7,44.1-59.5,80.8-59.5c59,0,97.6,53,97.6,126.4c0,71.4-44.1,126.9-100.1,126.9
			c-37.2,0-63.9-21.8-77.3-54v124.9h-51.1V16z M817.6,222.2c37.7,0,61-33.7,61-86.2c0-52-22.3-85.7-60.5-85.7
			c-38.7,0-63.9,33.7-63.9,85.7C754.1,189,778.4,222.2,817.6,222.2z"/>
		<path class="st2" d="M950.9,135.9c0-73.9,48.1-126.9,117-126.9c71.9,0,111,59.5,111,123.9v9.4h-176c1.5,49.6,26.8,79.8,66.9,79.8
			c26.3,0,47.1-11.4,59.5-35.2c1.5-3,3-6.4,4-9.9l43.1,10.4c-1.5,3-2.5,5.9-4,8.9c-20.8,42.6-56.5,66.4-103.6,66.4
			C999,262.8,950.9,209.8,950.9,135.9z M1128.8,108.7c-4-33.2-22.3-61.5-60.5-61.5c-36.2,0-58.5,23.8-63.9,61.5H1128.8z"/>
		<path class="st2" d="M1201.2,16h50.1v69.4c22.8-48.6,55-69.9,91.7-72.9v51.5c-40.6-0.5-90.7,25.8-90.7,74.3v116h-51.1V16z"/>
		<path class="st2" d="M1345,137.4c0-73.4,43.1-128.4,103.1-128.4c35.7,0,63.9,23.3,75.3,59.5V16h50.1v238.4h-50.1v-50.1
			c-13.4,34.2-42.6,58.5-78.3,58.5C1386.1,262.8,1345,209.3,1345,137.4z M1459,222.2c39.2,0,63.9-33.2,63.9-85.7
			c0-53.5-23.8-86.2-62-86.2c-39.2,0-62.9,33.7-62.9,87.2C1398,189.5,1421.3,222.2,1459,222.2z"/>
	</g>
</g>
<g id="Layer_3">
	<g>
		<path class="st2" d="M5.1,129.6C5.1,56.7,47.9,2,107.5,2C143,2,171,25.2,182.3,61.1V8.9h49.7v236.8h-49.7V196
			c-13.3,34-42.3,58.1-77.8,58.1C45.9,254.1,5.1,201,5.1,129.6z M118.3,213.8c38.9,0,63.5-33,63.5-85.2c0-53.2-23.6-85.7-61.6-85.7
			c-38.9,0-62.5,33.5-62.5,86.7C57.8,181.3,80.9,213.8,118.3,213.8z"/>
		<path class="st2" d="M267,8.9h49.7v41.4C329.1,20.2,351.2,2,383.2,2c33.5,0,55.6,20.2,65,49.7C462.5,20.7,486.2,2,520.1,2
			C567.9,2,595,37.5,595,87.7v158.1h-50.7V92.6c0-30.5-12.3-50.7-40.4-50.7c-30.5,0-47.8,24.6-47.8,66.5v137.4h-50.2V92.6
			c0-30-11.8-50.7-39.9-50.7c-31,0-48.3,24.6-48.3,66.5v137.4H267V8.9z"/>
		<path class="st2" d="M627,8.9h49.7v52.7C688.5,26.2,720.5,2.5,757,2.5c58.6,0,97,52.7,97,125.6c0,70.9-43.8,126.1-99.5,126.1
			c-36.9,0-63.5-21.7-76.8-53.7v124.1H627V8.9z M740.2,213.8c37.4,0,60.6-33.5,60.6-85.7c0-51.7-22.2-85.2-60.1-85.2
			c-38.4,0-63.5,33.5-63.5,85.2C677.2,180.8,701.3,213.8,740.2,213.8z"/>
		<path class="st2" d="M872.7,128.1C872.7,54.7,920.5,2,988.9,2c71.4,0,110.3,59.1,110.3,123.1v9.4H924.4
			c1.5,49.2,26.6,79.3,66.5,79.3c26.1,0,46.8-11.3,59.1-35c1.5-3,3-6.4,3.9-9.8l42.8,10.3c-1.5,3-2.5,5.9-3.9,8.9
			c-20.7,42.3-56.1,66-102.9,66C920.5,254.1,872.7,201.5,872.7,128.1z M1049.5,101c-3.9-33-22.2-61.1-60.1-61.1
			c-35.9,0-58.1,23.6-63.5,61.1H1049.5z"/>
		<path class="st2" d="M1121.4,8.9h49.7v68.9c22.7-48.3,54.7-69.4,91.1-72.4v51.2c-40.4-0.5-90.1,25.6-90.1,73.9v115.2h-50.7V8.9z"
			/>
		<path class="st2" d="M1264.2,129.6C1264.2,56.7,1307,2,1366.6,2c35.5,0,63.5,23.1,74.8,59.1V8.9h49.7v236.8h-49.7V196
			c-13.3,34-42.3,58.1-77.8,58.1C1305,254.1,1264.2,201,1264.2,129.6z M1377.4,213.8c38.9,0,63.5-33,63.5-85.2
			c0-53.2-23.6-85.7-61.6-85.7c-38.9,0-62.5,33.5-62.5,86.7C1316.9,181.3,1340,213.8,1377.4,213.8z"/>
	</g>
</g>
</svg>
