<?xml version="1.0" encoding="UTF-8"?><svg id="a" xmlns="http://www.w3.org/2000/svg" viewBox="0 0 1598 327.24"><path d="M176.75,6.5V58.69c-1.46-6.02-8.84-33.65-35.19-48.87C123.57-.58,105.61-.06,98.19,.24c-1.28,.05-18.44,.91-35.1,8.91C21.44,29.15,.85,85.21,.03,129.54c-.65,35.34,11.31,60.45,14.51,66.83,5.71,11.38,16.01,31.27,38.6,45.74,8.01,5.13,23.1,14.51,44.55,14.7,23.2,.2,39.52-10.49,45.54-14.54,22.09-14.89,30.72-35.81,33.52-43.7,.13,16.2,.26,32.4,.39,48.6h61.86c-.09-80.22-.18-160.45-.27-240.67h-61.98Zm-1.35,138.34c-2.11,19.47-8.72,39.68-23.96,51.98-19.79,15.98-52.14,13.01-68.7-6.31-8.46-9.87-12.71-22.7-15.05-35.49-3.01-16.49-3.13-33.51-.36-50.04,2.6-15.51,8.11-31.19,19.43-42.11,9.61-9.27,23.08-14.41,36.42-13.89,13.34,.52,26.37,6.69,35.23,16.67,9.57,10.79,13.99,25.22,16.15,39.47,1.98,13.12,2.27,26.5,.84,39.7Z" fill="#fff"/><path d="M870.29,20.91c-6.71-5.37-24-18.81-49.69-20.57-6.28-.43-35.77-1.72-60.31,20.13-15.17,13.51-21.2,29.4-23.53,36.98V6.5h-62V327.24h62v-121.93c2.62,6.65,12.46,29.18,37.41,42.26,3.51,1.84,20.14,10.21,42.84,8.71,26.02-1.72,43.67-15.33,51.1-21.23,43.71-34.68,44.6-94.95,44.76-105.98,.18-12.35,1.08-73.24-42.58-108.16Zm-24.75,124.98c-1.82,17-6.49,34.58-18.37,46.88-17.28,17.9-48.79,19.33-67.63,3.08-17-14.67-21.97-38.88-22.9-61.32-.7-16.88,.39-34.19,6.83-49.8,6.44-15.61,18.92-29.4,35.13-34.15,12.28-3.6,25.95-1.69,37.11,4.57,11.17,6.26,19.81,16.67,24.55,28.56,3.24,8.14,4.71,16.89,5.53,25.62,1.14,12.15,1.06,24.41-.25,36.55Z" fill="#fff"/><path d="M1138.23,33.18c-21.42-21.96-49.11-33.18-83.58-33.18s-63.21,11.71-85.15,34.65c-5.68,5.93-10.63,12.29-14.85,19.1-17.61,28.4-18.56,63.1-18.58,72.16-.03,15.03-.11,54.6,27.22,87.72,2.51,3.04,11.05,13.05,25.1,22.49,7.59,5.1,32.42,21.29,67.86,21.08,46.77-.27,76.89-28.88,82.49-34.41,16.24-16.03,24.21-33.3,28.07-43.7-17.69-3.92-35.37-7.85-53.06-11.77-1.33,4.63-6.5,20.5-22.61,31.48-13.11,8.93-26.31,9.76-31.92,9.75-19.67-.01-33.02-10.29-36.8-13.3-25.8-20.49-24.18-54.8-23.94-58.53,56.99,.15,113.97,.3,170.96,.45,.22-3.78,.42-9.38,.16-16.14-.64-16.4-1.83-57.58-31.35-87.84Zm-138.05,66.06c.19-3.92,1.65-26.2,20.29-41.73,3.56-2.97,16.73-13.6,36.08-12.8,18.07,.74,29.78,10.98,33.09,13.97,17.13,15.45,18.31,36.37,18.46,40.57h-107.91Z" fill="#fff"/><path d="M1325.07,6.08c-16.34,4.99-26.64,14.04-31.76,18.62-10.46,9.38-16.11,18.71-20.78,26.44-5.75,9.49-9.45,18.09-11.81,24.44-.11-23-.22-46-.33-69-5.25-.03-10.5-.06-15.74-.09h-45.61c.02,80.22,.04,160.45,.05,240.67h61.83c-.16-16.53-.2-30.43-.2-40.84,0-19.16,.13-9.1,.5-52.43,.17-20.05,.47-22.07,1-26.94,.91-8.39,4.07-25.11,17.13-39.07,12.78-13.67,28.63-17.84,41.14-21.13,11.93-3.14,22.19-3.78,29.13-3.81,.31-20.08,.61-40.16,.92-60.24-6.08-.19-15.13,.22-25.47,3.38Z" fill="#fff"/><path d="M1535.75,6.5V58.69c-1.46-6.02-8.84-33.65-35.19-48.87C1482.57-.58,1464.6-.06,1457.19,.24c-1.28,.05-18.44,.91-35.1,8.91-41.65,20-62.24,76.06-63.06,120.39-.65,35.34,11.31,60.45,14.51,66.83,5.71,11.38,16.01,31.27,38.6,45.74,8.01,5.13,23.1,14.51,44.55,14.7,23.2,.2,39.52-10.49,45.54-14.54,22.09-14.89,30.72-35.81,33.52-43.7,.13,16.2,.26,32.4,.39,48.6h61.86c-.09-80.22-.18-160.45-.27-240.67h-61.98Zm-1.05,137.11c-2.01,20.45-9.11,41.8-25.5,54.19-10.32,7.81-23.79,11.33-36.61,9.57-12.82-1.76-24.84-8.78-32.68-19.07-6.62-8.7-10.19-19.35-12.41-30.05-3.84-18.42-4.01-37.59-.49-56.07,2.64-13.88,7.6-27.8,17.35-38.01,9.4-9.83,22.99-15.52,36.59-15.32,13.6,.21,27.01,6.31,36.11,16.42,9.43,10.49,13.97,24.53,16.3,38.44,2.2,13.16,2.66,26.62,1.36,39.9Z" fill="#fff"/><path d="M555.85,1.59c-36.12,0-60.35,20.12-72.7,60.36-7.77-40.24-30.63-60.36-69.04-60.36-35.66,0-58.53,19.63-69.04,58.4V6.5h-58.07V246.95h58.07v-114.83c0-49.56,15.55-74.1,46.64-74.1,24.69,0,37.04,16.19,37.04,48.09V246.95h58.07v-109.43c0-53,15.55-79.5,46.64-79.5,25.15,0,37.49,16.19,37.49,48.58V246.95h58.07V101.21c0-66.25-24.23-99.62-73.16-99.62Z" fill="#fff"/></svg>