<svg viewBox="0 0 1597.93 962.4" xmlns="http://www.w3.org/2000/svg" xmlns:xlink="http://www.w3.org/1999/xlink"><clipPath id="a"><path d="m0 0h1597.93v962.4h-1597.93z"/></clipPath><g clip-path="url(#a)" fill="#fff"><path d="m176.83 641.7v52.2c-1.5-6-8.8-33.6-35.2-48.9-18-10.4-36-9.9-43.4-9.6-1.3.1-18.4.9-35.1 8.9-41.6 20-62.2 76.1-63.1 120.4-.7 35.3 11.3 60.5 14.5 66.8 5.7 11.4 16 31.3 38.6 45.7 8 5.1 23.1 14.5 44.5 14.7 23.2.2 39.5-10.5 45.5-14.5 22.1-14.9 30.7-35.8 33.5-43.7.1 16.2.3 32.4.4 48.6h61.9c-.1-80.2-.2-160.4-.3-240.7h-61.8zm-1.4 138.3c-2.1 19.5-8.7 39.7-24 52-19.8 16-52.1 13-68.7-6.3-8.5-9.9-12.7-22.7-15-35.5-3-16.5-3.1-33.5-.4-50 2.6-15.5 8.1-31.2 19.4-42.1 9.6-9.3 23.1-14.4 36.4-13.9s26.4 6.7 35.2 16.7c9.6 10.8 14 25.2 16.1 39.5 2.2 13 2.5 26.4 1 39.6"/><path d="m870.33 656.1c-6.7-5.4-24-18.8-49.7-20.6-6.3-.4-35.8-1.7-60.3 20.1-15.2 13.5-21.2 29.4-23.5 37v-50.9h-62v320.7h62v-121.9c2.6 6.6 12.5 29.2 37.4 42.3 3.5 1.8 20.1 10.2 42.8 8.7 26-1.7 43.7-15.3 51.1-21.2 43.7-34.7 44.6-94.9 44.8-106 .2-12.4 1.1-73.3-42.6-108.2m-24.7 125c-1.8 17-6.5 34.6-18.4 46.9-17.3 17.9-48.8 19.3-67.6 3.1-17-14.7-22-38.9-22.9-61.3-.7-16.9.4-34.2 6.8-49.8s18.9-29.4 35.1-34.1c12.3-3.6 25.9-1.7 37.1 4.6s19.8 16.7 24.5 28.6c3.2 8.1 4.7 16.9 5.5 25.6 1.2 12 1.2 24.2-.1 36.4"/><path d="m1138.33 668.4c-21.4-22-49.1-33.2-83.6-33.2s-63.2 11.7-85.2 34.6c-5.7 5.9-10.6 12.3-14.9 19.1-17.6 28.4-18.6 63.1-18.6 72.2 0 15-.1 54.6 27.2 87.7 2.5 3 11 13.1 25.1 22.5 7.6 5.1 32.4 21.3 67.9 21.1 46.8-.3 76.9-28.9 82.5-34.4 16.2-16 24.2-33.3 28.1-43.7-17.7-3.9-35.4-7.8-53.1-11.8-1.3 4.6-6.5 20.5-22.6 31.5-13.1 8.9-26.3 9.8-31.9 9.8-19.7 0-33-10.3-36.8-13.3-25.8-20.5-24.2-54.8-23.9-58.5 57 .2 114 .3 171 .5.2-3.8.4-9.4.2-16.1-.7-16.6-1.9-57.8-31.4-88m-138.1 66c.2-3.9 1.6-26.2 20.3-41.7 3.6-3 16.7-13.6 36.1-12.8 18.1.7 29.8 11 33.1 14 17.1 15.4 18.3 36.4 18.5 40.6-36.1-.1-72-.1-108-.1"/><path d="m1325.13 641.3c-16.3 5-26.6 14-31.8 18.6-10.5 9.4-16.1 18.7-20.8 26.4-5.7 9.5-9.4 18.1-11.8 24.4l-.3-69c-5.2 0-10.5-.1-15.7-.1h-45.6c0 80.2 0 160.4.1 240.7h61.8c-.2-16.5-.2-30.4-.2-40.8 0-19.2.1-9.1.5-52.4.2-20 .5-22.1 1-26.9.9-8.4 4.1-25.1 17.1-39.1 12.8-13.7 28.6-17.8 41.1-21.1 11.9-3.1 22.2-3.8 29.1-3.8.3-20.1.6-40.2.9-60.2-6-.3-15.1.1-25.4 3.3"/><path d="m1535.83 641.7v52.2c-1.5-6-8.8-33.6-35.2-48.9-18-10.4-36-9.9-43.4-9.6-1.3.1-18.4.9-35.1 8.9-41.6 20-62.2 76.1-63.1 120.4-.7 35.3 11.3 60.5 14.5 66.8 5.7 11.4 16 31.3 38.6 45.7 8 5.1 23.1 14.5 44.5 14.7 23.2.2 39.5-10.5 45.5-14.5 22.1-14.9 30.7-35.8 33.5-43.7.1 16.2.3 32.4.4 48.6h61.9c-.1-80.2-.2-160.4-.3-240.7h-61.8zm-1.1 137.1c-2 20.5-9.1 41.8-25.5 54.2-10.3 7.8-23.8 11.3-36.6 9.6-12.8-1.8-24.8-8.8-32.7-19.1-6.6-8.7-10.2-19.4-12.4-30.1-3.8-18.4-4-37.6-.5-56.1 2.6-13.9 7.6-27.8 17.4-38 9.4-9.8 23-15.5 36.6-15.3s27 6.3 36.1 16.4c9.4 10.5 14 24.5 16.3 38.4 2.2 13.2 2.6 26.7 1.3 40"/><path d="m555.93 636.8c-36.1 0-60.4 20.1-72.7 60.4-7.8-40.2-30.6-60.4-69-60.4-35.7 0-58.5 19.6-69 58.4v-53.5h-58.1v240.5h58.1v-114.8c0-49.6 15.5-74.1 46.6-74.1 24.7 0 37 16.2 37 48.1v140.8h58.1v-109.4c0-53 15.5-79.5 46.6-79.5 25.1 0 37.5 16.2 37.5 48.6v140.3h58.1v-145.7c-.1-66.4-24.3-99.7-73.2-99.7"/><path d="m414.13 0h-209.2l-182.8 476.2h209.2z"/></g></svg>